<svg xmlns="http://www.w3.org/2000/svg" viewBox="0 0 512 512"><path d="m508 216.2c-0.2-3.9-1.1-7.7-2.7-11.3-1.5-3.5-3.8-6.8-6.6-9.5-2.8-2.7-6.1-4.8-9.7-6.3-3.6-1.5-7.5-2.3-11.4-2.3h-139.4l63.6 237.5 104.4-196.8h-0.1q0.5-1.4 0.9-2.8 0.4-1.3 0.6-2.8 0.3-1.4 0.3-2.8 0.1-1.4 0.1-2.9zm-501.2 66.5v0.1q-0.7 1.5-1.3 3.1-0.5 1.6-0.9 3.3-0.3 1.6-0.5 3.3-0.1 1.7-0.1 3.4c0.2 3.7 0.9 7.3 2.4 10.6 1.4 3.4 3.4 6.5 5.9 9.2 2.5 2.6 5.4 4.8 8.7 6.5 3.3 1.6 6.8 2.6 10.4 3h142.5l-63.7-237.5zm308.2-95.9l-31.8-85.6c-1.2-2.7-2.8-5.2-4.7-7.4-1.9-2.2-4.1-4.2-6.5-5.8-2.5-1.6-5.2-2.8-8-3.7-2.8-0.8-5.7-1.3-8.6-1.3h-130.3q-2 0.1-3.9 0.4-2 0.3-3.9 0.9-1.8 0.6-3.6 1.5-1.8 0.8-3.5 1.9l86.9 237.5 30.1 82.3c0.9 3.1 2.4 6 4.2 8.6 1.9 2.7 4.2 5 6.8 6.9 2.6 1.9 5.4 3.4 8.5 4.4 3.1 1.1 6.3 1.6 9.5 1.6h129.8q2.1 0 4.2-0.3 2-0.3 4.1-0.9 2-0.6 3.9-1.5 1.8-0.8 3.6-2l-86.9-237.5z"></path></svg>