<?xml version="1.0" standalone="no"?>
<!DOCTYPE svg PUBLIC "-//W3C//DTD SVG 20010904//EN" "http://www.w3.org/TR/2001/REC-SVG-20010904/DTD/svg10.dtd">
<svg version="1.0" xmlns="http://www.w3.org/2000/svg" width="700.000000pt" height="700.000000pt" viewBox="0 0 700.000000 700.000000" preserveAspectRatio="xMidYMid meet">
<g transform="translate(0.000000,700.000000) scale(0.100000,-0.100000)" fill="#000000" stroke="none">
<path d="M5748 6241 c-15 -5 -42 -18 -60 -30 -18 -11 -703 -691 -1522 -1510 -819 -820 -1499 -1500 -1511 -1511 l-22 -20 -584 583 c-321 321 -599 594 -617 606 -74 52 -195 55 -270 7 -20 -13 -263 -249 -538 -524 -460 -458 -503 -504 -522 -555 -41 -108 -14 -199 87 -302 33 -33 540 -540 1128 -1126 1181 -1178 1109 -1114 1233 -1107 36 2 82 12 102 22 22 10 255 237 580 563 299 300 548 550 555 556 6 7 706 706 1555 1553 1000 998 1551 1555 1564 1580 25 52 26 166 1 212 -29 53 -951 969 -994 988 -46 19 -128 26 -165 15z" />
</g>
</svg>